HIERARCHY
ROOT Hip
{
	OFFSET -0.073976 0.235684 0.121419
	CHANNELS 6 Xposition Yposition Zposition Xrotation Yrotation Zrotation
	JOINT LowerSpine
	{
		OFFSET -0.000000 0.154443 0.259456
		CHANNELS 6 Xposition Yposition Zposition Xrotation Yrotation Zrotation
		JOINT MiddleSpine
		{
			OFFSET -0.000000 -0.011133 0.236774
			CHANNELS 3 Xrotation Yrotation Zrotation
			JOINT Chest
			{
				OFFSET -0.000000 0.058694 0.292979
				CHANNELS 3 Xrotation Yrotation Zrotation
				JOINT Neck
				{
					OFFSET -0.000000 0.012356 0.660220
					CHANNELS 6 Xposition Yposition Zposition Xrotation Yrotation Zrotation
					JOINT Head
					{
						OFFSET -0.000003 -0.101410 0.372834
						CHANNELS 3 Xrotation Yrotation Zrotation
						End Site
						{
							OFFSET 0.000000 -0.001598 0.053543
						}
					}
				}
				JOINT LClavicle
				{
					OFFSET 0.059990 -0.196462 0.637146
					CHANNELS 6 Xposition Yposition Zposition Xrotation Yrotation Zrotation
					JOINT LShoulder
					{
						OFFSET 0.350465 0.147877 0.091390
						CHANNELS 3 Xrotation Yrotation Zrotation
						JOINT LForearm
						{
							OFFSET 0.827173 0.007170 -0.002930
							CHANNELS 3 Xrotation Yrotation Zrotation
							JOINT LHand
							{
								OFFSET 0.690037 0.004134 0.002003
								CHANNELS 3 Xrotation Yrotation Zrotation
								JOINT LFinger1
								{
									OFFSET 0.267439 -0.074281 0.023389
									CHANNELS 6 Xposition Yposition Zposition Xrotation Yrotation Zrotation
									JOINT LFinger11
									{
										OFFSET 0.100035 -0.017626 -0.024394
										CHANNELS 3 Xrotation Yrotation Zrotation
										JOINT LFinger12
										{
											OFFSET 0.068292 -0.012037 -0.016657
											CHANNELS 3 Xrotation Yrotation Zrotation
											End Site
											{
												OFFSET 0.050720 -0.008226 -0.015140
											}
										}
									}
								}
								JOINT LFinger2
								{
									OFFSET 0.271429 -0.006467 0.027009
									CHANNELS 6 Xposition Yposition Zposition Xrotation Yrotation Zrotation
									JOINT LFinger21
									{
										OFFSET 0.123687 0.000731 0.000345
										CHANNELS 3 Xrotation Yrotation Zrotation
										JOINT LFinger22
										{
											OFFSET 0.068561 0.000417 0.000210
											CHANNELS 3 Xrotation Yrotation Zrotation
											End Site
											{
												OFFSET 0.053434 -0.000070 -0.003773
											}
										}
									}
								}
								JOINT LFinger3
								{
									OFFSET 0.257236 0.060858 0.018027
									CHANNELS 6 Xposition Yposition Zposition Xrotation Yrotation Zrotation
									JOINT LFinger31
									{
										OFFSET 0.112235 0.007028 -0.005681
										CHANNELS 3 Xrotation Yrotation Zrotation
										JOINT LFinger32
										{
											OFFSET 0.063958 0.004018 -0.003217
											CHANNELS 3 Xrotation Yrotation Zrotation
											End Site
											{
												OFFSET 0.053108 0.002511 -0.006529
											}
										}
									}
								}
								JOINT LFinger4
								{
									OFFSET 0.238705 0.105101 -0.018138
									CHANNELS 6 Xposition Yposition Zposition Xrotation Yrotation Zrotation
									JOINT LFinger41
									{
										OFFSET 0.069034 0.019057 -0.014397
										CHANNELS 3 Xrotation Yrotation Zrotation
										JOINT LFinger42
										{
											OFFSET 0.050624 0.013983 -0.010542
											CHANNELS 3 Xrotation Yrotation Zrotation
											End Site
											{
												OFFSET 0.050433 0.011572 -0.013857
											}
										}
									}
								}
								JOINT LFinger0
								{
									OFFSET 0.055325 -0.041941 -0.041874
									CHANNELS 6 Xposition Yposition Zposition Xrotation Yrotation Zrotation
									JOINT LFinger01
									{
										OFFSET 0.103004 -0.077658 -0.033827
										CHANNELS 3 Xrotation Yrotation Zrotation
										JOINT LFinger02
										{
											OFFSET 0.067827 -0.048865 -0.024270
											CHANNELS 3 Xrotation Yrotation Zrotation
											End Site
											{
												OFFSET 0.042515 -0.029114 -0.014636
											}
										}
									}
								}
							}
						}
					}
				}
				JOINT RClavicle
				{
					OFFSET -0.059990 -0.196459 0.637145
					CHANNELS 6 Xposition Yposition Zposition Xrotation Yrotation Zrotation
					JOINT RShoulder
					{
						OFFSET -0.350526 0.147901 0.091406
						CHANNELS 3 Xrotation Yrotation Zrotation
						JOINT RForearm
						{
							OFFSET -0.827173 0.007167 -0.002933
							CHANNELS 3 Xrotation Yrotation Zrotation
							JOINT RHand
							{
								OFFSET -0.690038 0.004132 0.002001
								CHANNELS 3 Xrotation Yrotation Zrotation
								JOINT RFinger1
								{
									OFFSET -0.267439 -0.074282 0.023391
									CHANNELS 6 Xposition Yposition Zposition Xrotation Yrotation Zrotation
									JOINT RFinger11
									{
										OFFSET -0.100035 -0.017626 -0.024394
										CHANNELS 3 Xrotation Yrotation Zrotation
										JOINT RFinger12
										{
											OFFSET -0.068292 -0.012037 -0.016660
											CHANNELS 3 Xrotation Yrotation Zrotation
											End Site
											{
												OFFSET -0.050720 -0.008226 -0.015141
											}
										}
									}
								}
								JOINT RFinger2
								{
									OFFSET -0.271429 -0.006468 0.027011
									CHANNELS 6 Xposition Yposition Zposition Xrotation Yrotation Zrotation
									JOINT RFinger21
									{
										OFFSET -0.123690 0.000731 0.000344
										CHANNELS 3 Xrotation Yrotation Zrotation
										JOINT RFinger22
										{
											OFFSET -0.068561 0.000420 0.000210
											CHANNELS 3 Xrotation Yrotation Zrotation
											End Site
											{
												OFFSET -0.053434 -0.000070 -0.003773
											}
										}
									}
								}
								JOINT RFinger3
								{
									OFFSET -0.257236 0.060857 0.018026
									CHANNELS 6 Xposition Yposition Zposition Xrotation Yrotation Zrotation
									JOINT RFinger31
									{
										OFFSET -0.112235 0.007028 -0.005682
										CHANNELS 3 Xrotation Yrotation Zrotation
										JOINT RFinger32
										{
											OFFSET -0.063958 0.004018 -0.003217
											CHANNELS 3 Xrotation Yrotation Zrotation
											End Site
											{
												OFFSET -0.053108 0.002511 -0.006529
											}
										}
									}
								}
								JOINT RFinger4
								{
									OFFSET -0.238706 0.105100 -0.018139
									CHANNELS 6 Xposition Yposition Zposition Xrotation Yrotation Zrotation
									JOINT RFinger41
									{
										OFFSET -0.069034 0.019057 -0.014395
										CHANNELS 3 Xrotation Yrotation Zrotation
										JOINT RFinger42
										{
											OFFSET -0.050624 0.013983 -0.010539
											CHANNELS 3 Xrotation Yrotation Zrotation
											End Site
											{
												OFFSET -0.050433 0.011572 -0.013857
											}
										}
									}
								}
								JOINT RFinger0
								{
									OFFSET -0.055325 -0.041938 -0.041871
									CHANNELS 6 Xposition Yposition Zposition Xrotation Yrotation Zrotation
									JOINT RFinger01
									{
										OFFSET -0.103004 -0.077661 -0.033833
										CHANNELS 3 Xrotation Yrotation Zrotation
										JOINT RFinger02
										{
											OFFSET -0.067824 -0.048866 -0.024268
											CHANNELS 3 Xrotation Yrotation Zrotation
											End Site
											{
												OFFSET -0.042515 -0.029114 -0.014636
											}
										}
									}
								}
							}
						}
					}
				}
			}
		}
	}
	JOINT RThigh
	{
		OFFSET -0.306771 0.025164 0.117281
		CHANNELS 6 Xposition Yposition Zposition Xrotation Yrotation Zrotation
		JOINT RShin
		{
			OFFSET -0.022210 -0.000000 -1.207231
			CHANNELS 3 Xrotation Yrotation Zrotation
			JOINT RFoot
			{
				OFFSET 0.000000 -0.000000 -1.185430
				CHANNELS 3 Xrotation Yrotation Zrotation
				JOINT RToe
				{
					OFFSET -0.000000 -0.272451 -0.130289
					CHANNELS 3 Xrotation Yrotation Zrotation
					End Site
					{
						OFFSET 0.000000 -0.053567 0.000000
					}
				}
			}
		}
	}
	JOINT LThigh
	{
		OFFSET 0.306765 0.025166 0.117289
		CHANNELS 6 Xposition Yposition Zposition Xrotation Yrotation Zrotation
		JOINT LShin
		{
			OFFSET 0.022212 -0.000000 -1.207240
			CHANNELS 3 Xrotation Yrotation Zrotation
			JOINT LFoot
			{
				OFFSET 0.000000 -0.000000 -1.185430
				CHANNELS 3 Xrotation Yrotation Zrotation
				JOINT LToe
				{
					OFFSET 0.000000 -0.272454 -0.130290
					CHANNELS 3 Xrotation Yrotation Zrotation
					End Site
					{
						OFFSET 0.000000 -0.053567 0.000000
					}
				}
			}
		}
	}
}
MOTION
Frames: 4
Frame Time: 0.041667
-0.716442 0.183839 2.272391 1.203697 -5.245512 -79.573562 -0.000000 0.154443 0.259456 -0.000000 0.000004 0.000001 -2.128401 0.591323 -2.934844 -8.135607 3.897663 -5.706543 -0.000000 0.012357 0.660220 0.468473 -4.469886 -1.196543 -1.986677 -1.100938 -0.051342 0.059990 -0.196462 0.637144 -0.000330 13.441885 -0.000052 39.397764 57.737761 -40.815578 0.033934 0.001763 -9.856466 0.000002 0.000001 0.000007 0.267439 -0.074281 0.023389 0.000003 -0.000008 -0.000006 -0.000002 -0.000009 0.000004 -0.000002 0.000004 0.000001 0.271428 -0.006467 0.027009 0.000002 -0.000009 -0.000004 -0.000001 -0.000001 0.000001 -0.000002 0.000001 -0.000001 0.257236 0.060859 0.018027 0.000002 -0.000001 0.000001 -0.000004 0.000000 -0.000002 -0.000001 -0.000002 0.000000 0.238706 0.105101 -0.018139 0.000000 0.000000 -0.000003 -0.000004 0.000006 0.000008 -0.000001 -0.000000 0.000003 0.055325 -0.041941 -0.041874 0.000003 -0.000003 0.000006 0.000009 -0.000002 0.000008 0.000004 -0.000006 0.000009 -0.059990 -0.196459 0.637144 0.000592 -11.929562 0.000919 6.304371 -66.318412 -16.436601 0.048057 -0.000981 14.027368 0.000001 0.000007 -0.000001 -0.267440 -0.074281 0.023392 0.000031 0.000050 -0.000008 -0.000022 -0.000037 0.000013 0.000001 0.000003 0.000000 -0.271429 -0.006468 0.027012 0.000036 0.000073 -0.000014 0.000020 0.000009 -0.000001 -0.000008 0.000003 -0.000000 -0.257236 0.060858 0.018027 0.000038 0.000075 -0.000018 0.000001 -0.000004 0.000002 -0.000007 -0.000028 0.000006 -0.238705 0.105100 -0.018138 0.000033 0.000063 -0.000023 0.000025 -0.000019 0.000004 0.000017 0.000026 -0.000010 -0.055325 -0.041939 -0.041871 0.000012 0.000028 0.000008 -0.000011 -0.000006 -0.000013 -0.000018 -0.000031 -0.000000 -0.306280 0.031133 0.143989 -12.225923 -10.623214 -6.813114 18.531343 -0.000012 0.000004 -19.961139 22.276305 19.040327 -4.277782 0.000014 -0.000007 0.308702 0.043623 0.210201 -34.372118 -3.985044 -5.103589 41.291711 -0.000006 0.000008 -1.263644 0.658625 -1.335750 -2.142737 0.000009 -0.000010 
-0.753099 0.176305 2.266654 0.238280 -5.248901 -85.397869 0.000000 0.154442 0.259456 -0.000001 0.000004 0.000001 -2.131028 0.518629 -3.224468 -8.416998 3.904896 -6.819159 0.000000 0.012357 0.660220 0.485298 -4.312706 -1.153521 -1.880680 -1.127388 -0.051570 0.059990 -0.196462 0.637145 -0.000251 13.250908 -0.000034 38.523776 57.441160 -41.302308 0.033562 0.001830 -9.639438 0.000002 -0.000002 0.000001 0.267439 -0.074280 0.023389 -0.000000 -0.000009 -0.000009 -0.000004 -0.000003 -0.000004 0.000006 0.000003 0.000002 0.271428 -0.006467 0.027010 0.000001 -0.000011 -0.000006 -0.000005 -0.000001 0.000000 -0.000003 0.000002 0.000003 0.257235 0.060859 0.018027 0.000001 -0.000002 -0.000003 -0.000002 -0.000000 0.000003 -0.000004 -0.000004 0.000004 0.238705 0.105102 -0.018139 -0.000000 -0.000004 -0.000006 -0.000002 0.000004 0.000012 -0.000006 0.000001 0.000017 0.055324 -0.041941 -0.041873 -0.000000 -0.000008 0.000000 0.000010 -0.000009 0.000012 -0.000009 -0.000006 0.000003 -0.059990 -0.196459 0.637144 0.000434 -11.573822 0.000675 4.432440 -63.834122 -18.052649 0.043281 -0.002354 11.310154 -0.000000 0.000008 -0.000001 -0.267439 -0.074281 0.023391 0.000029 0.000053 -0.000008 -0.000021 -0.000034 0.000011 0.000003 0.000005 -0.000000 -0.271429 -0.006468 0.027012 0.000037 0.000072 -0.000015 0.000019 0.000012 -0.000000 -0.000008 0.000005 0.000001 -0.257236 0.060858 0.018027 0.000039 0.000074 -0.000016 -0.000000 0.000000 0.000001 -0.000005 -0.000029 0.000010 -0.238706 0.105100 -0.018138 0.000035 0.000072 -0.000022 0.000024 -0.000017 0.000008 0.000014 0.000027 -0.000009 -0.055325 -0.041939 -0.041871 0.000009 0.000033 0.000003 -0.000002 -0.000003 -0.000005 -0.000026 -0.000034 0.000006 -0.306281 0.031133 0.143989 -11.377125 -10.026158 -6.149487 19.452112 -0.000015 0.000008 -19.794674 22.211625 19.022937 -3.983110 0.000015 -0.000005 0.308702 0.043623 0.210201 -34.359762 -4.838970 -4.843705 37.160935 -0.000006 0.000005 -1.187339 0.654941 -1.334179 -0.385441 0.000006 -0.000010 
-0.785187 0.169691 2.259623 -0.663369 -5.446797 -91.306392 0.000000 0.154442 0.259456 0.000001 0.000004 0.000002 -2.131006 0.439263 -3.516019 -8.506242 3.842197 -7.732401 -0.000000 0.012356 0.660220 0.113363 -4.193539 -1.136305 -1.785624 -1.161654 -0.052222 0.059990 -0.196462 0.637146 -0.000189 13.036865 -0.000029 37.198576 56.884684 -41.111363 0.034170 0.001690 -10.039436 -0.000002 -0.000002 -0.000001 0.267439 -0.074281 0.023389 0.000001 -0.000009 -0.000003 0.000001 -0.000012 0.000003 -0.000001 0.000004 -0.000000 0.271429 -0.006467 0.027010 0.000002 -0.000010 -0.000004 0.000006 -0.000002 -0.000001 -0.000003 0.000004 -0.000002 0.257236 0.060858 0.018027 -0.000001 -0.000002 -0.000001 -0.000001 0.000001 0.000003 -0.000006 -0.000002 0.000006 0.238705 0.105101 -0.018138 -0.000001 0.000001 0.000000 -0.000001 0.000002 0.000002 0.000005 -0.000006 0.000004 0.055325 -0.041941 -0.041873 -0.000000 -0.000005 0.000007 -0.000000 -0.000006 0.000014 -0.000002 -0.000009 -0.000002 -0.059990 -0.196459 0.637145 0.000314 -11.199401 0.000495 3.597426 -61.257166 -18.361685 0.036874 -0.002834 9.070011 0.000003 0.000011 -0.000002 -0.267440 -0.074281 0.023392 0.000031 0.000050 -0.000008 -0.000021 -0.000048 0.000021 -0.000000 0.000015 -0.000005 -0.271429 -0.006468 0.027012 0.000038 0.000071 -0.000014 0.000017 0.000015 0.000001 -0.000008 0.000003 0.000002 -0.257236 0.060858 0.018027 0.000039 0.000073 -0.000017 0.000004 -0.000004 0.000000 -0.000010 -0.000028 0.000007 -0.238706 0.105100 -0.018139 0.000038 0.000066 -0.000017 0.000028 -0.000019 0.000010 0.000015 0.000021 -0.000010 -0.055326 -0.041939 -0.041871 0.000015 0.000034 0.000008 -0.000003 0.000003 -0.000015 -0.000020 -0.000040 0.000010 -0.306281 0.031133 0.143989 -11.299313 -9.228444 -5.514096 21.033369 -0.000011 0.000005 -19.560902 22.120918 18.999512 -3.995221 0.000014 -0.000004 0.308702 0.043623 0.210202 -33.867001 -6.083109 -4.111903 32.278183 -0.000005 0.000004 -1.026544 0.451015 -0.922515 -0.007785 0.000006 -0.000008 
-0.816922 0.162901 2.251683 -1.357556 -5.644785 -96.775885 -0.000000 0.154443 0.259457 -0.000000 0.000004 0.000001 -2.128078 0.353373 -3.807369 -8.486467 3.619598 -9.412392 -0.000000 0.012356 0.660221 -0.366003 -4.088475 -1.126369 -1.701101 -1.202415 -0.053209 0.059990 -0.196462 0.637145 -0.000140 12.799766 -0.000018 35.724362 56.108433 -39.835063 0.040426 0.000914 -12.583488 0.000012 -0.000000 0.000001 0.267439 -0.074281 0.023389 0.000001 -0.000007 0.000001 -0.000003 -0.000007 0.000007 0.000001 0.000011 0.000010 0.271429 -0.006467 0.027009 0.000004 -0.000006 0.000001 -0.000005 -0.000001 0.000002 -0.000002 0.000002 0.000001 0.257235 0.060858 0.018027 0.000011 -0.000001 -0.000003 -0.000001 -0.000001 -0.000002 -0.000007 -0.000001 0.000007 0.238706 0.105102 -0.018139 0.000000 -0.000000 0.000000 0.000005 -0.000002 0.000002 0.000002 -0.000006 0.000004 0.055325 -0.041941 -0.041873 0.000012 0.000000 -0.000004 0.000006 -0.000003 0.000013 -0.000015 -0.000009 0.000002 -0.059990 -0.196459 0.637145 0.000225 -10.803595 0.000363 3.490150 -58.225047 -17.410794 0.026983 -0.002483 6.640753 0.000002 0.000007 -0.000000 -0.267439 -0.074281 0.023392 0.000033 0.000049 -0.000016 -0.000024 -0.000037 0.000012 0.000006 -0.000000 0.000002 -0.271429 -0.006468 0.027012 0.000041 0.000072 -0.000015 0.000019 0.000015 -0.000001 -0.000005 0.000006 0.000001 -0.257236 0.060858 0.018027 0.000038 0.000072 -0.000016 0.000003 -0.000004 0.000004 -0.000008 -0.000028 0.000005 -0.238705 0.105100 -0.018138 0.000034 0.000068 -0.000024 0.000036 -0.000015 0.000009 0.000016 0.000021 -0.000014 -0.055325 -0.041939 -0.041871 0.000015 0.000034 0.000005 -0.000004 -0.000002 -0.000012 -0.000023 -0.000029 -0.000008 -0.306280 0.031133 0.143990 -11.463532 -8.479315 -4.905198 22.759840 -0.000015 0.000007 -19.260041 22.004443 18.971067 -4.067668 0.000016 -0.000002 0.308702 0.043624 0.210202 -32.462608 -7.806005 -2.925728 26.106050 0.000001 -0.000000 -0.864627 0.221430 -0.453279 -0.000004 0.000008 -0.000009 
